<svg width="79" height="16" xmlns="http://www.w3.org/2000/svg">
    <g fill="#FFF" fill-rule="nonzero" opacity=".28">
        <path d="M7.99 3.534a4.456 4.456 0 1 1 0 8.912 4.456 4.456 0 0 1 0-8.912M7.99 0a7.99 7.99 0 1 0 0 15.98A7.99 7.99 0 1 0 7.99 0zM19.528 15.738V.22h7.584c1.85 0 3.239.484 4.165 1.453.926.969 1.388 2.268 1.387 3.9 0 2.302-.976 3.854-2.929 4.656l3.694 5.508h-4.284l-3.192-5.006h-2.862v5.006l-3.563.002zm3.563-8.2h3.365c.787 0 1.387-.178 1.8-.535.413-.358.62-.864.623-1.52 0-.625-.197-1.125-.591-1.5-.394-.373-.984-.56-1.77-.557h-3.427v4.113zM38.109 15.738V.22h3.738v15.52zM60.945 6.7A4.343 4.343 0 0 1 57.9 7.975a4.453 4.453 0 1 1-4.452-4.421h.036A4.358 4.358 0 0 1 55.113.2 7.965 7.965 0 0 0 47.8 2.36a7.99 7.99 0 0 0 0 11.3 7.987 7.987 0 0 0 13.46-7.314 4.5 4.5 0 0 1-.315.354z"/>
        <path d="M57.853 1.055a2.551 2.551 0 1 0-.007 5.102 2.551 2.551 0 0 0 .007-5.102zM64.72 15.738V.22h3.519l7.11 9.573.044-.02V.218H79v15.52h-3.629l-7-9.312h-.043v9.311z"/>
    </g>
</svg>
